<svg xmlns="http://www.w3.org/2000/svg" viewBox="0 0 24 24" role="presentation" class="icon icon-theme-109" aria-hidden="true" focusable="false">
  <path d="M19.884 21.897c-.124.124-.271.186-.439.186h-15c-.169 0-.315-.062-.439-.186s-.186-.271-.186-.439v-15c0-.169.062-.315.186-.439s.271-.186.439-.186h3.75c0-1.028.368-1.911 1.104-2.646.735-.735 1.618-1.104 2.646-1.104s1.911.368 2.646 1.104c.735.736 1.104 1.618 1.104 2.646h3.75c.169 0 .315.062.439.186s.186.271.186.439v15c0 .169-.062.315-.186.439zm-1.065-14.814h-3.125v2.5c0 .169-.062.316-.186.439s-.271.186-.439.186-.315-.062-.439-.186-.186-.27-.186-.439v-2.5h-5v2.5c0 .169-.062.316-.186.439s-.271.186-.439.186-.315-.062-.439-.186-.186-.27-.186-.439v-2.5H5.069v13.75h13.75V7.083zM10.177 4.065c-.489.489-.733 1.078-.733 1.768h5c0-.69-.244-1.279-.732-1.768s-1.077-.732-1.768-.732-1.279.244-1.768.732z"/>
</svg>
