<svg xmlns="http://www.w3.org/2000/svg" viewBox="0 0 24 24">
  <path d="M0 0H17V1.19325H0V0ZM0 5.40338H17V6.59662H0V5.40338ZM0 10.8068H7V12H0V10.8068Z" />
  <path d="M18.3253 9.523C18.7251 9.69088 19.1056 9.8975 19.4667 10.1429C19.8279 10.3753 20.1568 10.6465 20.4534 10.9564C20.763 11.2534 21.0339 11.5827 21.266 11.9443C21.5111 12.3059 21.7175 12.6868 21.8851 13.0872C22.0657 13.5004 22.1947 13.9266 22.2721 14.3656C22.3624 14.7918 22.4075 15.2373 22.4075 15.7022C22.4075 16.1154 22.3688 16.5222 22.2914 16.9225C22.2269 17.3099 22.1237 17.6909 21.9819 18.0654C21.84 18.4399 21.6659 18.795 21.4595 19.1308C21.266 19.4665 21.0468 19.7764 20.8017 20.0605L23.8452 23.109C24.0644 23.3282 24.0644 23.658 23.8452 23.8772C23.6259 24.0964 23.2962 24.0964 23.077 23.8772L20.0335 20.8094C19.7369 21.0677 19.4208 21.2937 19.0855 21.4874C18.7631 21.6811 18.4148 21.849 18.0408 21.991C17.6667 22.146 17.2798 22.2622 16.8799 22.3397C16.493 22.4042 16.0932 22.4365 15.6804 22.4365C15.2161 22.4365 14.7647 22.3913 14.3261 22.3009C13.8876 22.2105 13.4684 22.0814 13.0686 21.9135C12.6558 21.7327 12.2689 21.5261 11.9077 21.2937C11.5595 21.0483 11.2306 20.7771 10.9211 20.4801C10.6244 20.1702 10.3535 19.8409 10.1085 19.4922C9.87633 19.1306 9.66996 18.7432 9.48939 18.33C9.32172 17.9297 9.19274 17.51 9.10245 17.0709C9.01216 16.6318 8.96699 16.1799 8.96699 15.715C8.96699 15.2501 9.01216 14.8046 9.10245 14.3784C9.19274 13.9394 9.32172 13.5132 9.48939 13.1C9.66996 12.6996 9.87633 12.3187 10.1085 11.9571C10.3535 11.5955 10.6244 11.2662 10.9211 10.9692C11.2306 10.6593 11.5595 10.3881 11.9077 10.1557C12.2689 9.91032 12.6558 9.7037 13.0686 9.53582C13.4684 9.35503 13.8876 9.22591 14.3261 9.14842C14.7647 9.05803 15.2161 9.01283 15.6804 9.01283C16.1447 9.01283 16.5896 9.05803 17.0153 9.14842C17.4538 9.22591 17.8794 9.35503 18.2922 9.53582ZM10.4374 17.9232C10.5922 18.2719 10.7663 18.6012 10.9597 18.9111C11.1661 19.2081 11.3983 19.4858 11.6562 19.7441C11.9142 20.0023 12.1915 20.2348 12.4882 20.4414C12.7977 20.6351 13.1266 20.8094 13.4749 20.9644C13.8102 21.1064 14.1585 21.2162 14.5196 21.2937C14.8936 21.3712 15.2806 21.4099 15.6804 21.4099C16.0674 21.4099 16.4414 21.3712 16.8026 21.2937C17.1766 21.2162 17.5377 21.1064 17.886 20.9644C18.2342 20.8094 18.5567 20.6351 18.8534 20.4414C19.1501 20.2348 19.4274 20.0023 19.6854 19.7441C19.9433 19.4858 20.1755 19.2081 20.3819 18.9111C20.5882 18.6012 20.7623 18.2719 20.9042 17.9232C21.059 17.5875 21.1686 17.2388 21.2331 16.8772C21.3105 16.5027 21.3492 16.1153 21.3492 15.715C21.3492 15.3276 21.3105 14.9531 21.2331 14.5915C21.1686 14.217 21.059 13.8554 20.9042 13.5067C20.7623 13.1581 20.5882 12.8352 20.3819 12.5382C20.1755 12.2412 19.9433 11.9636 19.6854 11.7053C19.4274 11.4471 19.1501 11.2146 18.8534 11.008C18.5567 10.8013 18.2342 10.627 17.886 10.485C17.5377 10.33 17.1766 10.2202 16.8026 10.1557C16.4414 10.0782 16.0674 10.0394 15.6804 10.0394C15.2806 10.0394 14.8936 10.0782 14.5196 10.1557C14.1585 10.2202 13.8102 10.33 13.4749 10.485C13.1266 10.627 12.7977 10.8013 12.4882 11.008C12.1915 11.2146 11.9142 11.4471 11.6562 11.7053C11.3983 11.9636 11.1661 12.2412 10.9597 12.5382C10.7663 12.8352 10.5922 13.1581 10.4374 13.5067C10.2955 13.8554 10.1859 14.217 10.1085 14.5915C10.0311 14.9531 9.99237 15.3276 9.99237 15.715C9.99237 16.1153 10.0311 16.5027 10.1085 16.8772C10.1859 17.2388 10.2955 17.5875 10.4374 17.9232Z" />
</svg>
