<svg
  xmlns="http://www.w3.org/2000/svg"
  viewBox="0 0 24 24"
  aria-hidden="true"
  focusable="false"
  role="presentation"
  class="icon icon-theme-172"
>
  <path d="M12.139 5.929c-.742 0-1.426.205-2.051.615s-1.088.954-1.387 1.631c-.065.156-.068.315-.01.478s.173.277.342.342c.156.078.313.085.469.02s.273-.176.352-.332c.195-.456.501-.82.918-1.094.417-.273.872-.41 1.367-.41.69 0 1.279.244 1.768.732s.732 1.077.732 1.768-.244 1.279-.732 1.768-1.078.732-1.768.732c-.169 0-.316.062-.439.186s-.186.271-.186.439v1.875c0 .169.062.315.186.439.124.124.27.186.439.186s.315-.062.439-.186c.124-.124.186-.271.186-.439v-1.664c.885-.144 1.627-.563 2.227-1.26.599-.696.898-1.507.898-2.432 0-1.028-.368-1.911-1.104-2.646s-1.491-1.104-2.519-1.104z" />
  <path d="M21.348 7.917c-.527-1.211-1.244-2.269-2.148-3.174-.905-.905-1.963-1.621-3.174-2.148s-2.507-.791-3.887-.791-2.676.264-3.887.791S5.983 3.838 5.078 4.743 3.457 6.706 2.93 7.917 2.139 10.424 2.139 11.804s.264 2.676.791 3.887 1.243 2.269 2.148 3.174 1.963 1.621 3.174 2.148 2.506.791 3.887.791 2.676-.264 3.887-.791 2.269-1.243 3.174-2.148 1.621-1.963 2.148-3.174.791-2.507.791-3.887-.264-2.676-.791-3.887zM20.195 15.212c-.462 1.062-1.087 1.985-1.875 2.773s-1.712 1.413-2.773 1.875c-1.062.462-2.197.693-3.408.693s-2.347-.231-3.408-.693c-1.062-.462-1.986-1.087-2.773-1.875s-1.413-1.712-1.875-2.773c-.462-1.062-.693-2.197-.693-3.408s.231-2.347.693-3.408c.462-1.061 1.087-1.985 1.875-2.773s1.712-1.413 2.773-1.875C9.792 3.286 10.928 3.055 12.139 3.055s2.347.231 3.408.693c1.061.462 1.985 1.087 2.773 1.875s1.413 1.712 1.875 2.773c.462 1.061.693 2.197.693 3.408s-.231 2.347-.693 3.408z" />
  <circle cx="12.139" cy="17.438" r="0.74" />
</svg>
