<svg xmlns="http://www.w3.org/2000/svg" viewBox="0 0 24 24" aria-hidden="true" role="presentation">
  <path d="M4.023 22.167h-1.25v-.625c0-1.042.163-2.034.488-2.979.325-.944.778-1.807 1.357-2.588.579-.781 1.266-1.458 2.061-2.031.794-.573 1.66-1.016 2.598-1.328-.82-.481-1.484-1.149-1.992-2.002C6.777 9.761 6.523 8.82 6.523 7.792c0-.781.146-1.51.439-2.188.293-.677.696-1.272 1.211-1.787.514-.514 1.11-.918 1.787-1.211.677-.293 1.406-.439 2.188-.439s1.51.146 2.188.439c.677.293 1.272.697 1.787 1.211.514.515.918 1.11 1.211 1.787.293.677.439 1.406.439 2.188 0 1.029-.254 1.97-.762 2.822-.508.853-1.172 1.521-1.992 2.002.938.313 1.803.755 2.598 1.328.794.573 1.481 1.25 2.061 2.031.579.781 1.032 1.644 1.357 2.588.325.944.488 1.937.488 2.979v.625h-1.25v-.625c0-1.12-.212-2.174-.635-3.164-.423-.989-1.003-1.852-1.738-2.588-.736-.735-1.599-1.315-2.588-1.738-.99-.423-2.044-.635-3.164-.635-1.12 0-2.175.212-3.164.635-.99.423-1.853 1.003-2.588 1.738-.736.736-1.315 1.599-1.738 2.588-.423.99-.635 2.044-.635 3.164v.625zM8.115 9.491c.228.534.54 1 .938 1.396.397.397.862.71 1.396.938.534.228 1.1.342 1.699.342.599 0 1.165-.114 1.699-.342.534-.228.999-.54 1.396-.938.397-.397.709-.862.938-1.396.228-.534.342-1.1.342-1.699 0-.599-.114-1.165-.342-1.699-.228-.534-.541-.999-.938-1.396-.397-.397-.863-.709-1.396-.937-.534-.228-1.101-.342-1.699-.342-.599 0-1.166.114-1.699.342-.534.228-1 .541-1.396.937-.397.397-.71.863-.938 1.396-.228.534-.342 1.1-.342 1.699 0 .599.114 1.165.342 1.699z"/>
</svg>
